<?xml version="1.0" encoding="utf-8"?>
<!-- Generator: Adobe Illustrator 15.0.1, SVG Export Plug-In . SVG Version: 6.00 Build 0)  -->
<!DOCTYPE svg PUBLIC "-//W3C//DTD SVG 1.1//EN" "http://www.w3.org/Graphics/SVG/1.1/DTD/svg11.dtd">
<svg version="1.1" id="Layer_1" xmlns="http://www.w3.org/2000/svg" xmlns:xlink="http://www.w3.org/1999/xlink" x="0px" y="0px"
	 width="595px" height="842px" viewBox="0 0 595 842" enable-background="new 0 0 595 842" xml:space="preserve">
<g>
	
		<line fill="none" stroke="#000000" stroke-width="0.797" stroke-linecap="square" stroke-miterlimit="10" x1="46.522" y1="124.035" x2="46.622" y2="124.035"/>
	
		<line fill="none" stroke="#000000" stroke-width="0.797" stroke-miterlimit="10" x1="46.522" y1="124.035" x2="159.908" y2="124.035"/>
	
		<line fill="none" stroke="#000000" stroke-width="0.797" stroke-linecap="square" stroke-miterlimit="10" x1="46.522" y1="124.035" x2="46.522" y2="123.935"/>
	
		<line fill="none" stroke="#000000" stroke-width="0.797" stroke-miterlimit="10" x1="46.522" y1="124.035" x2="46.522" y2="10.649"/>
	
		<line fill="none" stroke="#000000" stroke-width="0.797" stroke-miterlimit="10" x1="103.215" y1="127.422" x2="103.215" y2="120.647"/>
	
		<line fill="none" stroke="#000000" stroke-width="0.797" stroke-miterlimit="10" x1="159.908" y1="127.422" x2="159.908" y2="120.647"/>
	<text transform="matrix(1 0 0 1 43.5972 140.1089)"><tspan x="0" y="0" font-family="'CMR12'" font-size="11.9551" letter-spacing="46">0</tspan><tspan x="52.423" y="0" font-family="'CMR12'" font-size="11.9551">0</tspan></text>
	<text transform="matrix(1 0 0 1 101.584 140.1089)" font-family="'CMMI12'" font-size="11.9551">.</text>
	<text transform="matrix(1 0 0 1 104.833 140.1089)"><tspan x="0" y="0" font-family="'CMR12'" font-size="11.9551" letter-spacing="41">5</tspan><tspan x="47.868" y="0" font-family="'CMR12'" font-size="11.9551">1</tspan></text>
	<text transform="matrix(1 0 0 1 158.2754 140.1089)" font-family="'CMMI12'" font-size="11.9551">.</text>
	<text transform="matrix(1 0 0 1 161.5239 140.1089)" font-family="'CMR12'" font-size="11.9551">0</text>
	
		<line fill="none" stroke="#000000" stroke-width="0.797" stroke-miterlimit="10" x1="49.909" y1="67.342" x2="43.135" y2="67.342"/>
	
		<line fill="none" stroke="#000000" stroke-width="0.797" stroke-miterlimit="10" x1="49.909" y1="10.649" x2="43.135" y2="10.649"/>
	<text transform="matrix(1 0 0 1 32.3022 127.8867)" font-family="'CMR12'" font-size="11.9551">0</text>
	<text transform="matrix(1 0 0 1 23.1938 71.1958)" font-family="'CMR12'" font-size="11.9551">0</text>
	<text transform="matrix(1 0 0 1 29.0439 71.1958)" font-family="'CMMI12'" font-size="11.9551">.</text>
	<text transform="matrix(1 0 0 1 32.293 71.1958)" font-family="'CMR12'" font-size="11.9551">5</text>
	<text transform="matrix(1 0 0 1 23.1938 14.5049)" font-family="'CMR12'" font-size="11.9551">1</text>
	<text transform="matrix(1 0 0 1 29.0439 14.5049)" font-family="'CMMI12'" font-size="11.9551">.</text>
	<text transform="matrix(1 0 0 1 32.293 14.5049)" font-family="'CMR12'" font-size="11.9551">0</text>
	<path fill="none" stroke="#000000" stroke-width="1.7933" stroke-miterlimit="10" d="M46.533,123.868c0,0,0.688-5.996,1.146-9.143
		c0.347-2.394,0.721-4.535,1.145-6.917c0.37-2.089,0.729-3.959,1.144-6.039c0.377-1.889,0.734-3.582,1.146-5.464
		c0.38-1.739,0.736-3.297,1.145-5.029c0.382-1.618,0.737-3.068,1.145-4.68c0.383-1.517,0.738-2.876,1.145-4.386
		c0.384-1.429,0.739-2.709,1.145-4.132c0.385-1.351,0.74-2.561,1.145-3.907c0.386-1.281,0.741-2.429,1.145-3.704
		c0.386-1.218,0.741-2.309,1.145-3.521c0.387-1.159,0.741-2.198,1.145-3.353c0.387-1.104,0.742-2.095,1.145-3.195
		c0.388-1.055,0.742-1.999,1.146-3.048c0.387-1.008,0.741-1.91,1.144-2.911c0.388-0.963,0.743-1.825,1.146-2.782
		C65.242,50.738,65.597,49.914,66,49c0.388-0.88,0.742-1.667,1.145-2.541c0.388-0.842,0.742-1.594,1.145-2.429
		c0.388-0.804,0.743-1.524,1.145-2.321c0.388-0.769,0.743-1.456,1.145-2.217c0.388-0.735,0.743-1.391,1.145-2.118
		c0.388-0.702,0.743-1.328,1.145-2.022c0.389-0.669,0.743-1.267,1.145-1.928c0.389-0.637,0.743-1.207,1.145-1.836
		c0.389-0.608,0.743-1.15,1.146-1.749c0.388-0.578,0.743-1.093,1.144-1.662c0.389-0.549,0.743-1.039,1.146-1.578
		c0.388-0.521,0.743-0.986,1.145-1.496c0.388-0.494,0.743-0.933,1.145-1.416c0.388-0.466,0.743-0.881,1.145-1.336
		c0.389-0.44,0.743-0.831,1.145-1.259c0.389-0.414,0.743-0.781,1.145-1.182c0.389-0.389,0.744-0.733,1.145-1.108
		c0.389-0.363,0.744-0.684,1.145-1.033c0.389-0.339,0.744-0.637,1.145-0.961c0.389-0.314,0.744-0.59,1.145-0.888
		c0.39-0.29,0.744-0.544,1.146-0.817c0.389-0.266,0.744-0.498,1.145-0.747c0.389-0.242,0.744-0.452,1.145-0.677
		c0.39-0.218,0.745-0.407,1.145-0.606c0.39-0.195,0.745-0.363,1.145-0.539c0.391-0.172,0.746-0.318,1.145-0.47
		c0.391-0.149,0.746-0.274,1.145-0.402c0.392-0.126,0.747-0.231,1.145-0.335c0.392-0.104,0.747-0.187,1.145-0.268
		c0.393-0.08,0.748-0.143,1.145-0.2c0.394-0.057,0.749-0.099,1.145-0.134c0.395-0.034,0.75-0.055,1.145-0.066
		c0.395-0.012,0.751-0.012,1.146,0c0.395,0.011,0.75,0.032,1.145,0.066c0.396,0.035,0.751,0.077,1.144,0.134
		c0.398,0.057,0.753,0.12,1.146,0.2c0.397,0.081,0.752,0.164,1.145,0.268c0.398,0.104,0.753,0.209,1.145,0.335
		c0.398,0.128,0.753,0.253,1.145,0.402c0.399,0.152,0.754,0.298,1.145,0.47c0.4,0.176,0.755,0.344,1.145,0.539
		c0.4,0.2,0.755,0.389,1.145,0.606c0.4,0.225,0.756,0.436,1.145,0.677c0.401,0.249,0.756,0.481,1.145,0.747
		c0.401,0.273,0.756,0.527,1.146,0.817c0.401,0.298,0.755,0.574,1.145,0.888c0.401,0.324,0.755,0.622,1.144,0.961
		c0.402,0.349,0.757,0.67,1.146,1.033c0.401,0.375,0.756,0.719,1.145,1.108c0.402,0.401,0.756,0.768,1.145,1.182
		c0.402,0.428,0.756,0.819,1.145,1.259c0.402,0.455,0.757,0.87,1.145,1.336c0.402,0.483,0.756,0.922,1.145,1.416
		c0.402,0.51,0.757,0.975,1.145,1.496c0.402,0.539,0.757,1.029,1.145,1.578c0.402,0.569,0.757,1.084,1.145,1.662
		c0.403,0.599,0.757,1.141,1.146,1.749c0.402,0.629,0.756,1.199,1.145,1.836c0.402,0.662,0.756,1.259,1.144,1.929
		c0.403,0.693,0.757,1.319,1.146,2.021c0.402,0.727,0.756,1.383,1.145,2.118c0.402,0.761,0.757,1.448,1.145,2.217
		c0.402,0.797,0.757,1.517,1.145,2.321c0.403,0.835,0.757,1.588,1.145,2.429c0.403,0.874,0.757,1.661,1.145,2.541
		c0.403,0.914,0.758,1.738,1.145,2.658c0.403,0.957,0.758,1.819,1.145,2.782c0.404,1.001,0.758,1.903,1.145,2.911
		c0.403,1.049,0.758,1.993,1.146,3.048c0.403,1.1,0.757,2.09,1.145,3.195c0.403,1.154,0.758,2.193,1.144,3.353
		c0.405,1.212,0.759,2.303,1.146,3.521c0.404,1.275,0.759,2.423,1.145,3.705c0.405,1.345,0.759,2.555,1.145,3.906
		c0.406,1.423,0.761,2.703,1.145,4.132c0.407,1.511,0.762,2.869,1.145,4.386c0.408,1.612,0.763,3.062,1.145,4.68
		c0.409,1.732,0.765,3.29,1.145,5.029c0.411,1.882,0.768,3.575,1.145,5.464c0.416,2.08,0.775,3.951,1.145,6.039
		c0.423,2.382,0.798,4.523,1.145,6.917c0.458,3.147,1.146,9.143,1.146,9.143"/>
	<text transform="matrix(1 0 0 1 83.9082 151.9707)" font-family="'CMMI12'" font-size="11.9551">p</text>
	<text transform="matrix(1 0 0 1 89.7852 151.9707)" font-family="'CMR12'" font-size="11.9551">(</text>
	<text transform="matrix(1 0 0 1 94.3389 151.9707)"><tspan x="0" y="0" font-family="'CMMI12'" font-size="11.9551">tai</tspan><tspan x="12.517" y="0" font-family="'CMMI12'" font-size="11.9551">l</tspan><tspan x="15.601" y="0" font-family="'CMMI12'" font-size="11.9551">s</tspan></text>
	<text transform="matrix(1 0 0 1 117.9731 151.9707)" font-family="'CMR12'" font-size="11.9551">)</text>
	<text transform="matrix(-6.123234e-17 -1 1 -6.123234e-17 17.7583 82.5356)" font-family="'CMMI12'" font-size="11.9551">H</text>
	<text transform="matrix(-6.123234e-17 -1 1 -6.123234e-17 17.7583 71.9067)" font-family="'CMR12'" font-size="11.9551">(</text>
	<text transform="matrix(-6.123234e-17 -1 1 -6.123234e-17 17.7578 67.353)" font-family="'CMMI12'" font-size="11.9551">X</text>
	<text transform="matrix(-6.123234e-17 -1 1 -6.123234e-17 17.7578 56.7065)" font-family="'CMR12'" font-size="11.9551">)</text>
</g>
</svg>
