<?xml version="1.0" encoding="UTF-8" standalone="no"?>
<!DOCTYPE svg PUBLIC "-//W3C//DTD SVG 1.1//EN"
 "http://www.w3.org/Graphics/SVG/1.1/DTD/svg11.dtd">
<!-- Generated by graphviz version 2.26.3 (20100126.1600)
 -->
<!-- Title: structs Pages: 1 -->
<svg width="220pt" height="369pt"
 viewBox="0.00 0.00 220.00 369.00" xmlns="http://www.w3.org/2000/svg" xmlns:xlink="http://www.w3.org/1999/xlink">
<g id="graph1" class="graph" transform="scale(1 1) rotate(0) translate(4 365)">
<title>structs</title>
<polygon fill="white" stroke="white" points="-4,5 -4,-365 217,-365 217,5 -4,5"/>
<g id="graph2" class="cluster"><title>cluster0</title>
<polygon fill="none" stroke="black" stroke-dasharray="5,2" points="134,-8 134,-353 204,-353 204,-8 134,-8"/>
<text text-anchor="middle" x="169" y="-336.4" font-family="Times,serif" font-size="14.00">Corpus</text>
</g>
<g id="graph3" class="cluster"><title>cluster1</title>
<polygon fill="none" stroke="black" stroke-dasharray="5,2" points="8,-8 8,-353 78,-353 78,-8 8,-8"/>
<text text-anchor="middle" x="43" y="-336.4" font-family="Times,serif" font-size="14.00">Indices</text>
</g>
<!-- word0 -->
<g id="node2" class="node"><title>word0</title>
<polygon fill="none" stroke="black" points="142,-286 142,-322 196,-322 196,-286 142,-286"/>
<text text-anchor="middle" x="169" y="-298.9" font-family="Times,serif" font-size="14.00">to</text>
</g>
<!-- word1 -->
<g id="node3" class="node"><title>word1</title>
<polygon fill="none" stroke="black" points="142,-232 142,-268 196,-268 196,-232 142,-232"/>
<text text-anchor="middle" x="169" y="-244.9" font-family="Times,serif" font-size="14.00">be</text>
</g>
<!-- word2 -->
<g id="node4" class="node"><title>word2</title>
<polygon fill="none" stroke="black" points="142,-178 142,-214 196,-214 196,-178 142,-178"/>
<text text-anchor="middle" x="169" y="-190.9" font-family="Times,serif" font-size="14.00">or</text>
</g>
<!-- word3 -->
<g id="node5" class="node"><title>word3</title>
<polygon fill="none" stroke="black" points="142,-124 142,-160 196,-160 196,-124 142,-124"/>
<text text-anchor="middle" x="169" y="-136.9" font-family="Times,serif" font-size="14.00">not</text>
</g>
<!-- word4 -->
<g id="node6" class="node"><title>word4</title>
<polygon fill="none" stroke="black" points="142,-70 142,-106 196,-106 196,-70 142,-70"/>
<text text-anchor="middle" x="169" y="-82.9" font-family="Times,serif" font-size="14.00">to</text>
</g>
<!-- word5 -->
<g id="node7" class="node"><title>word5</title>
<polygon fill="none" stroke="black" points="142,-16 142,-52 196,-52 196,-16 142,-16"/>
<text text-anchor="middle" x="169" y="-28.9" font-family="Times,serif" font-size="14.00">be</text>
</g>
<!-- index0 -->
<g id="node9" class="node"><title>index0</title>
<polygon fill="none" stroke="black" points="16,-286 16,-322 70,-322 70,-286 16,-286"/>
<text text-anchor="middle" x="43" y="-298.9" font-family="Times,serif" font-size="14.00">0</text>
</g>
<!-- index0&#45;&gt;word0 -->
<g id="edge4" class="edge"><title>index0&#45;&gt;word0</title>
<path fill="none" stroke="black" d="M70.0302,-304C87.9281,-304 111.651,-304 131.384,-304"/>
<polygon fill="black" stroke="black" points="131.58,-307.5 141.58,-304 131.58,-300.5 131.58,-307.5"/>
</g>
<!-- index1 -->
<g id="node10" class="node"><title>index1</title>
<polygon fill="none" stroke="black" points="16,-232 16,-268 70,-268 70,-232 16,-232"/>
<text text-anchor="middle" x="43" y="-244.9" font-family="Times,serif" font-size="14.00">1</text>
</g>
<!-- index1&#45;&gt;word1 -->
<g id="edge6" class="edge"><title>index1&#45;&gt;word1</title>
<path fill="none" stroke="black" d="M70.0302,-250C87.9281,-250 111.651,-250 131.384,-250"/>
<polygon fill="black" stroke="black" points="131.58,-253.5 141.58,-250 131.58,-246.5 131.58,-253.5"/>
</g>
<!-- index2 -->
<g id="node11" class="node"><title>index2</title>
<polygon fill="none" stroke="black" points="16,-178 16,-214 70,-214 70,-178 16,-178"/>
<text text-anchor="middle" x="43" y="-190.9" font-family="Times,serif" font-size="14.00">2</text>
</g>
<!-- index2&#45;&gt;word2 -->
<g id="edge8" class="edge"><title>index2&#45;&gt;word2</title>
<path fill="none" stroke="black" d="M70.0302,-196C87.9281,-196 111.651,-196 131.384,-196"/>
<polygon fill="black" stroke="black" points="131.58,-199.5 141.58,-196 131.58,-192.5 131.58,-199.5"/>
</g>
<!-- index3 -->
<g id="node12" class="node"><title>index3</title>
<polygon fill="none" stroke="black" points="16,-124 16,-160 70,-160 70,-124 16,-124"/>
<text text-anchor="middle" x="43" y="-136.9" font-family="Times,serif" font-size="14.00">3</text>
</g>
<!-- index3&#45;&gt;word3 -->
<g id="edge10" class="edge"><title>index3&#45;&gt;word3</title>
<path fill="none" stroke="black" d="M70.0302,-142C87.9281,-142 111.651,-142 131.384,-142"/>
<polygon fill="black" stroke="black" points="131.58,-145.5 141.58,-142 131.58,-138.5 131.58,-145.5"/>
</g>
<!-- index4 -->
<g id="node13" class="node"><title>index4</title>
<polygon fill="none" stroke="black" points="16,-70 16,-106 70,-106 70,-70 16,-70"/>
<text text-anchor="middle" x="43" y="-82.9" font-family="Times,serif" font-size="14.00">4</text>
</g>
<!-- index4&#45;&gt;word4 -->
<g id="edge12" class="edge"><title>index4&#45;&gt;word4</title>
<path fill="none" stroke="black" d="M70.0302,-88C87.9281,-88 111.651,-88 131.384,-88"/>
<polygon fill="black" stroke="black" points="131.58,-91.5001 141.58,-88 131.58,-84.5001 131.58,-91.5001"/>
</g>
<!-- index5 -->
<g id="node14" class="node"><title>index5</title>
<polygon fill="none" stroke="black" points="16,-16 16,-52 70,-52 70,-16 16,-16"/>
<text text-anchor="middle" x="43" y="-28.9" font-family="Times,serif" font-size="14.00">5</text>
</g>
<!-- index5&#45;&gt;word5 -->
<g id="edge14" class="edge"><title>index5&#45;&gt;word5</title>
<path fill="none" stroke="black" d="M70.0302,-34C87.9281,-34 111.651,-34 131.384,-34"/>
<polygon fill="black" stroke="black" points="131.58,-37.5001 141.58,-34 131.58,-30.5001 131.58,-37.5001"/>
</g>
</g>
</svg>
