<?xml version="1.0" encoding="UTF-8" standalone="no"?>
<!DOCTYPE svg PUBLIC "-//W3C//DTD SVG 1.1//EN"
 "http://www.w3.org/Graphics/SVG/1.1/DTD/svg11.dtd">
<!-- Generated by graphviz version 2.26.3 (20100126.1600)
 -->
<!-- Title: structs Pages: 1 -->
<svg width="220pt" height="383pt"
 viewBox="0.00 0.00 220.00 383.00" xmlns="http://www.w3.org/2000/svg" xmlns:xlink="http://www.w3.org/1999/xlink">
<g id="graph1" class="graph" transform="scale(1 1) rotate(0) translate(4 379)">
<title>structs</title>
<polygon fill="white" stroke="white" points="-4,5 -4,-379 217,-379 217,5 -4,5"/>
<g id="graph2" class="cluster"><title>cluster0</title>
<polygon fill="none" stroke="black" stroke-dasharray="5,2" points="134,-22 134,-367 204,-367 204,-22 134,-22"/>
<text text-anchor="middle" x="169" y="-350.4" font-family="Times,serif" font-size="14.00">Corpus</text>
</g>
<g id="graph3" class="cluster"><title>cluster1</title>
<polygon fill="none" stroke="black" stroke-dasharray="5,2" points="8,-8 8,-353 78,-353 78,-8 8,-8"/>
<text text-anchor="middle" x="43" y="-336.4" font-family="Times,serif" font-size="14.00">Indices</text>
</g>
<!-- word0 -->
<g id="node2" class="node"><title>word0</title>
<polygon fill="none" stroke="black" points="142,-300 142,-336 196,-336 196,-300 142,-300"/>
<text text-anchor="middle" x="169" y="-312.9" font-family="Times,serif" font-size="14.00">to</text>
</g>
<!-- word1 -->
<g id="node3" class="node"><title>word1</title>
<polygon fill="none" stroke="black" points="142,-246 142,-282 196,-282 196,-246 142,-246"/>
<text text-anchor="middle" x="169" y="-258.9" font-family="Times,serif" font-size="14.00">be</text>
</g>
<!-- word2 -->
<g id="node4" class="node"><title>word2</title>
<polygon fill="none" stroke="black" points="142,-192 142,-228 196,-228 196,-192 142,-192"/>
<text text-anchor="middle" x="169" y="-204.9" font-family="Times,serif" font-size="14.00">or</text>
</g>
<!-- word3 -->
<g id="node5" class="node"><title>word3</title>
<polygon fill="none" stroke="black" points="142,-138 142,-174 196,-174 196,-138 142,-138"/>
<text text-anchor="middle" x="169" y="-150.9" font-family="Times,serif" font-size="14.00">not</text>
</g>
<!-- word4 -->
<g id="node6" class="node"><title>word4</title>
<polygon fill="none" stroke="black" points="142,-84 142,-120 196,-120 196,-84 142,-84"/>
<text text-anchor="middle" x="169" y="-96.9" font-family="Times,serif" font-size="14.00">to</text>
</g>
<!-- word5 -->
<g id="node7" class="node"><title>word5</title>
<polygon fill="none" stroke="black" points="142,-30 142,-66 196,-66 196,-30 142,-30"/>
<text text-anchor="middle" x="169" y="-42.9" font-family="Times,serif" font-size="14.00">be</text>
</g>
<!-- index5 -->
<g id="node9" class="node"><title>index5</title>
<polygon fill="none" stroke="black" points="16,-286 16,-322 70,-322 70,-286 16,-286"/>
<text text-anchor="middle" x="43" y="-298.9" font-family="Times,serif" font-size="14.00">5</text>
</g>
<!-- index5&#45;&gt;word5 -->
<g id="edge14" class="edge"><title>index5&#45;&gt;word5</title>
<path fill="none" stroke="black" d="M70.0116,-286.198C73.0064,-283.392 75.7729,-280.311 78,-277 129.994,-199.694 82.0064,-152.306 134,-75 134.348,-74.4826 134.709,-73.9708 135.082,-73.4649"/>
<polygon fill="black" stroke="black" points="137.893,-75.5738 141.988,-65.8023 132.694,-70.8873 137.893,-75.5738"/>
</g>
<!-- index1 -->
<g id="node10" class="node"><title>index1</title>
<polygon fill="none" stroke="black" points="16,-232 16,-268 70,-268 70,-232 16,-232"/>
<text text-anchor="middle" x="43" y="-244.9" font-family="Times,serif" font-size="14.00">1</text>
</g>
<!-- index1&#45;&gt;word1 -->
<g id="edge6" class="edge"><title>index1&#45;&gt;word1</title>
<path fill="none" stroke="black" d="M70.0302,-253.003C87.9281,-254.992 111.651,-257.628 131.384,-259.82"/>
<polygon fill="black" stroke="black" points="131.254,-263.327 141.58,-260.953 132.027,-256.37 131.254,-263.327"/>
</g>
<!-- index3 -->
<g id="node11" class="node"><title>index3</title>
<polygon fill="none" stroke="black" points="16,-178 16,-214 70,-214 70,-178 16,-178"/>
<text text-anchor="middle" x="43" y="-190.9" font-family="Times,serif" font-size="14.00">3</text>
</g>
<!-- index3&#45;&gt;word3 -->
<g id="edge10" class="edge"><title>index3&#45;&gt;word3</title>
<path fill="none" stroke="black" d="M70.0302,-187.419C88.0931,-181.685 112.089,-174.067 131.929,-167.769"/>
<polygon fill="black" stroke="black" points="133.108,-171.067 141.58,-164.705 130.989,-164.395 133.108,-171.067"/>
</g>
<!-- index2 -->
<g id="node12" class="node"><title>index2</title>
<polygon fill="none" stroke="black" points="16,-124 16,-160 70,-160 70,-124 16,-124"/>
<text text-anchor="middle" x="43" y="-136.9" font-family="Times,serif" font-size="14.00">2</text>
</g>
<!-- index2&#45;&gt;word2 -->
<g id="edge8" class="edge"><title>index2&#45;&gt;word2</title>
<path fill="none" stroke="black" d="M70.0302,-156.588C88.3405,-166.469 112.747,-179.641 132.741,-190.432"/>
<polygon fill="black" stroke="black" points="131.117,-193.532 141.58,-195.202 134.442,-187.372 131.117,-193.532"/>
</g>
<!-- index4 -->
<g id="node13" class="node"><title>index4</title>
<polygon fill="none" stroke="black" points="16,-70 16,-106 70,-106 70,-70 16,-70"/>
<text text-anchor="middle" x="43" y="-82.9" font-family="Times,serif" font-size="14.00">4</text>
</g>
<!-- index4&#45;&gt;word4 -->
<g id="edge12" class="edge"><title>index4&#45;&gt;word4</title>
<path fill="none" stroke="black" d="M70.0302,-91.0034C87.9281,-92.992 111.651,-95.6279 131.384,-97.8204"/>
<polygon fill="black" stroke="black" points="131.254,-101.327 141.58,-98.9533 132.027,-94.3703 131.254,-101.327"/>
</g>
<!-- index0 -->
<g id="node14" class="node"><title>index0</title>
<polygon fill="none" stroke="black" points="16,-16 16,-52 70,-52 70,-16 16,-16"/>
<text text-anchor="middle" x="43" y="-28.9" font-family="Times,serif" font-size="14.00">0</text>
</g>
<!-- index0&#45;&gt;word0 -->
<g id="edge4" class="edge"><title>index0&#45;&gt;word0</title>
<path fill="none" stroke="black" d="M70.1119,-51.736C73.0903,-54.5531 75.8255,-57.6539 78,-61 135.329,-149.217 76.6713,-202.783 134,-291 134.34,-291.523 134.693,-292.04 135.059,-292.55"/>
<polygon fill="black" stroke="black" points="132.639,-295.097 141.888,-300.264 137.88,-290.457 132.639,-295.097"/>
</g>
</g>
</svg>
