<?xml version="1.0" encoding="utf-8"?>
<!-- Generator: Adobe Illustrator 15.0.1, SVG Export Plug-In . SVG Version: 6.00 Build 0)  -->
<!DOCTYPE svg PUBLIC "-//W3C//DTD SVG 1.1//EN" "http://www.w3.org/Graphics/SVG/1.1/DTD/svg11.dtd">
<svg version="1.1"
	 id="svg3289" sodipodi:docname="waiter.svg" inkscape:version="0.47 r22583" xmlns:inkscape="http://www.inkscape.org/namespaces/inkscape" xmlns:sodipodi="http://sodipodi.sourceforge.net/DTD/sodipodi-0.dtd" xmlns:rdf="http://www.w3.org/1999/02/22-rdf-syntax-ns#" xmlns:svg="http://www.w3.org/2000/svg" xmlns:cc="http://creativecommons.org/ns#" xmlns:dc="http://purl.org/dc/elements/1.1/"
	 xmlns="http://www.w3.org/2000/svg" xmlns:xlink="http://www.w3.org/1999/xlink" x="0px" y="0px" width="597.543px"
	 height="575.619px" viewBox="0 0 597.543 575.619" enable-background="new 0 0 597.543 575.619" xml:space="preserve">
<defs>
	
	
		<inkscape:perspective  sodipodi:type="inkscape:persp3d" inkscape:vp_x="0 : 526.18109 : 1" inkscape:vp_y="0 : 1000 : 0" inkscape:vp_z="744.09448 : 526.18109 : 1" inkscape:persp3d-origin="372.04724 : 350.78739 : 1" id="perspective3297">
		</inkscape:perspective>
	
		<inkscape:perspective  sodipodi:type="inkscape:persp3d" inkscape:vp_x="0 : 0.5 : 1" inkscape:vp_y="0 : 1000 : 0" inkscape:vp_z="1 : 0.5 : 1" inkscape:persp3d-origin="0.5 : 0.33333333 : 1" id="perspective3307">
		</inkscape:perspective>
	
		<inkscape:perspective  sodipodi:type="inkscape:persp3d" inkscape:vp_x="0 : 0.5 : 1" inkscape:vp_y="0 : 1000 : 0" inkscape:vp_z="1 : 0.5 : 1" inkscape:persp3d-origin="0.5 : 0.33333333 : 1" id="perspective3467">
		</inkscape:perspective>
</defs>
<sodipodi:namedview  id="base" pagecolor="#ffffff" bordercolor="#666666" inkscape:cx="287.89371" borderopacity="1.0" inkscape:pageopacity="0.0" inkscape:pageshadow="2" inkscape:zoom="0.98994949" inkscape:cy="282.6498" inkscape:document-units="px" inkscape:current-layer="layer1" showgrid="false" inkscape:window-width="940" inkscape:window-height="933" inkscape:window-x="138" inkscape:window-y="54" inkscape:window-maximized="0">
	</sodipodi:namedview>
<g id="layer1" transform="translate(-87.1063, -250.822)" inkscape:label="Layer 1" inkscape:groupmode="layer">
	<g id="g3678">
		<polygon id="polygon4726" points="256.787,720.901 237.367,774.093 275.361,800.268 216.26,824.752 316.734,825.597 
			282.116,773.249 313.355,722.591 		"/>
		<polygon id="polygon4728" points="360.638,715.835 386.81,764.806 354.728,825.597 457.732,826.441 396.099,795.202 
			426.492,765.65 412.986,709.926 		"/>
		<polygon id="polygon4730" fill="#FDD89A" points="242.432,576.523 412.986,617.896 412.14,453.256 459.419,443.124 
			418.052,319.853 255.098,317.32 240.746,429.613 		"/>
		<path id="path4732" fill="#FFFFFF" d="M288.871,476.052c0,0,96.703,40.524,124.944,24.483l0.859,45.593
			C414.675,546.128,304.274,546.128,288.871,476.052z"/>
		<path id="path4734" d="M412.14,453.255c0,0-49.813,25.33-64.167-25.33c0,0-27.862,87.807,63.322,55.725
			c0,0,72.613,45.591,83.586-38.84C494.88,444.81,447.601,492.093,412.14,453.255L412.14,453.255z"/>
		<polygon id="polygon4736" fill="#D8BA79" points="412.986,590.878 241.589,566.391 248.345,734.412 418.892,720.901 		"/>
		<polygon id="polygon4738" fill="#806646" points="266.075,705.703 277.051,682.907 318.421,682.907 306.602,720.057 		"/>
		<polygon id="polygon4740" fill="#816647" points="397.788,710.769 366.547,713.302 366.547,684.596 391.876,674.465 		"/>
		<g id="g4742" transform="matrix(2.53294, 0, 0, 2.53294, -788.261, 70.9815)">
			<polygon id="polygon4744" fill="#816647" points="448.083,220.571 451.083,220.603 450.75,253.27 447.75,253.238 			"/>
		</g>
		<path id="path4746" fill="#FFFFFF" d="M252.691,567.942c0,0,53.851,84.136,104.273,63.482c0,0,56.203-1.94,51.969-46.611
			L252.691,567.942L252.691,567.942z"/>
		<path id="path4748" fill="#666666" d="M165.598,775.779c0,0,48.972,0.846,48.125-1.687
			c-0.841-2.533-11.818-141.845-11.818-141.845l-32.928,6.753l-8.445,55.725L165.598,775.779z"/>
		<g id="g4750" transform="matrix(2.53294, 0, 0, 2.53294, -788.261, 70.9815)">
			<polygon id="polygon4752" fill="#FFFFFF" points="381.08,253.159 382.413,274.493 379.419,274.681 378.086,253.347 			"/>
		</g>
		<g id="g4754" transform="matrix(2.53294, 0, 0, 2.53294, -788.261, 70.9815)">
			<polygon id="polygon4756" fill="#FFFFFF" points="386.746,244.481 388.746,272.815 385.754,273.026 383.754,244.692 			"/>
		</g>
		<polygon id="polygon4758" fill="#806646" points="141.961,611.985 126.763,639.846 201.062,663.489 255.097,626.337 
			248.345,576.523 199.373,624.649 		"/>
		<polygon id="polygon4760" fill="#806646" points="399.476,585.811 499.105,612.831 555.671,592.567 579.314,610.298 
			499.947,648.292 405.386,616.207 		"/>
		<path id="path4762" fill="#FDD89A" d="M161.591,619.261l-25.329-12.665c0,0-21.953-43.06-30.396-18.574
			c0,0-27.021,2.531-11.824,18.574c0,0-18.574,31.242,5.066,26.176c0,0,6.755,25.329,27.862,0l31.241,11.818L161.591,619.261z"/>
		<polygon id="polygon4764" fill="#565248" points="140.061,610.718 118.108,652.092 143.438,666.443 166.234,615.784 		"/>
		<path id="path4766" fill="#CCCCCF" d="M154.626,614.517c0,0-32.085,116.515-27.862,114.828c4.22-1.692,54.878,2.533,54.878,2.533
			l27.862-118.208l-10.132,10.979L154.626,614.517z"/>
		<g id="g4768" transform="matrix(2.53294, 0, 0, 2.53294, -788.261, 70.9815)">
			<polygon id="polygon4770" fill="#FFFFFF" points="377.143,219.501 380.023,220.341 370.023,254.673 367.143,253.833 			"/>
		</g>
		<g id="g4772" transform="matrix(2.53294, 0, 0, 2.53294, -788.261, 70.9815)">
			<path id="path4774" fill="#FFFFFF" d="M379.389,256.204l-2.944-0.566c2.442-12.709,6.319-33.518,6.317-35.253
				c0,0.007,0.001,0.15,0.064,0.342l2.847-0.947C385.821,220.225,386.129,221.151,379.389,256.204L379.389,256.204L379.389,256.204z
				"/>
		</g>
		<polygon id="polygon4776" fill="#D40000" points="338.684,598.473 300.69,566.391 294.779,633.934 333.618,619.583 
			363.168,619.583 412.14,633.094 408.761,568.079 365.701,600.166 		"/>
		<polygon id="polygon4778" fill="#FD3301" points="368.234,590.876 338.684,592.567 334.465,623.803 367.393,626.337 		"/>
		<polygon id="polygon4780" fill="#565248" points="548.451,597 509.87,607.132 530.814,656.098 569.394,644.28 		"/>
		
			<ellipse id="ellipse4782" sodipodi:cy="121.087" sodipodi:cx="436.75" sodipodi:rx="7.1669998" sodipodi:ry="6.8340001" cx="318" cy="377.688" rx="18.154" ry="17.31">
		</ellipse>
		
			<ellipse id="ellipse4784" sodipodi:cy="120.42" sodipodi:cx="457.41599" sodipodi:rx="7.1659999" sodipodi:ry="6.8330002" cx="370.346" cy="375.998" rx="18.151" ry="17.307">
		</ellipse>
		<path id="path4786" fill="#EEEEEE" d="M298.474,596.469l-1.9,19.314c0,0,15.831,3.166,17.414-10.766
			C313.988,605.018,313.038,595.204,298.474,596.469z"/>
		<path id="path4788" fill="#EEEEEE" d="M320.004,583.173l11.398,8.865C331.402,592.038,310.505,602.169,320.004,583.173z"/>
		<path id="path4790" fill="#EEEEEE" d="M337.101,607.868c0,0,18.047,1.9,12.032,16.465l-14.668-0.529L337.101,607.868
			L337.101,607.868z"/>
		<path id="path4792" fill="#EEEEEE" d="M370.029,596.787l14.881-10.132c0,0,7.915,9.498,0.316,14.881
			C385.227,601.536,376.045,610.401,370.029,596.787z"/>
		<path id="path4794" fill="#EEEEEE" d="M373.512,622.116l17.73,4.749c0,0,1.899-6.966-5.382-12.348
			C378.578,609.135,375.095,618.317,373.512,622.116z"/>
		<path id="path4796" fill="#EEEEEE" d="M410.556,592.987l0.633,19.314c0,0-10.764,2.849-13.613-8.866
			C397.576,603.435,396.943,591.404,410.556,592.987L410.556,592.987z"/>
		<path id="path4798" d="M232.301,460.854c0,0-1.687-139.312-10.975-153.666l38.837-21.107l4.223,8.442
			c0,0,154.506-10.975,159.573-8.442l-0.842-10.132c0,0-16.889,2.533-18.576-6.755c0,0,22.797-26.173,32.928-16.041
			c0,0,53.193,37.148-14.352,83.587l-151.132,5.909c0,0-14.354,107.227-3.376,115.672L232.301,460.854L232.301,460.854z"/>
		<path id="path4800" fill="#808285" d="M487.283,588.342c0,0,100.477,81.9,190.816,17.731c0,0,44.746-75.143-99.631-65.011
			C578.468,541.062,450.974,546.971,487.283,588.342L487.283,588.342z"/>
		<path id="path4802" fill="#939598" d="M503.326,578.21c0,0,86.119,65.856,140.158,26.176c0,0,32.082-34.617-13.512-41.373
			C629.972,563.012,481.374,554.57,503.326,578.21L503.326,578.21z"/>
		<path id="path4804" fill="#8BD7F8" d="M625.751,559.638l-2.531,32.929c0,0,23.637,10.975,31.236,0l0.846-33.774
			C655.302,558.793,638.417,545.284,625.751,559.638L625.751,559.638z"/>
		<path id="path4806" fill="#8BD7F8" d="M564.962,492.09l-5.912,89.499c0,0,28.703,21.109,47.279,0l13.512-92.031l9.285-11.819
			l-24.484-3.379l6.754-58.258L584.38,427.08l1.686,48.972L564.962,492.09L564.962,492.09z"/>
		<path id="path4808" fill="#8BD7F8" d="M513.456,563.012l1.688,34.62c0,0,16.043,16.885,28.709-1.692l2.533-29.549
			C546.386,566.391,530.341,550.347,513.456,563.012L513.456,563.012z"/>
		<path id="path4810" fill="#FFFFFF" d="M512.611,566.391c0,0,7.6,38.84,33.775,0C546.386,566.391,523.589,548.661,512.611,566.391z
			"/>
		<path id="path4812" fill="#FFFFFF" d="M624.906,563.012c0,0,21.951,19.422,30.396-4.22c0,0-17.73-14.352-29.551,0.846"/>
	</g>
</g>
<rect x="486.482" y="263.396" transform="matrix(0.9976 0.0698 -0.0698 0.9976 21.3414 -34.5241)" fill="none" width="37" height="49.81"/>
<text transform="matrix(0.9976 0.0698 -0.0698 0.9976 485.4057 303.0439)" fill="#23363E" font-family="'Times-Roman'" font-size="60">λ</text>
</svg>
